<svg xmlns="http://www.w3.org/2000/svg" viewBox="0 0 185.21 61.42">
  <title>candidate-tracker-white</title>
  <path d="M32.07,59.08V55.57c0-.1,0-.11.1-.12l.43,0c.45,0,.9-.07,1.35-.12s.82-.1,1.22-.16q1.13-.19,2.22-.48a23.5,23.5,0,0,0,9-4.67,24,24,0,0,0,5.55-6.78,23.47,23.47,0,0,0,1.78-4.16,24,24,0,0,0,.71-2.87c.09-.51.16-1,.22-1.54s.11-1.12.12-1.68c0-.2,0-.2.21-.2h6.87c.18,0,.18,0,.18.18,0,.51,0,1-.08,1.52,0,.35-.06.7-.1,1s-.1.85-.17,1.27c-.1.61-.21,1.22-.34,1.83-.19.84-.41,1.68-.66,2.5a31.25,31.25,0,0,1-2.15,5.18A30.93,30.93,0,0,1,47.59,58.05a31.06,31.06,0,0,1-4.16,2.18,30.33,30.33,0,0,1-5,1.66c-.73.17-1.45.31-2.19.43-.56.09-1.12.17-1.68.23l-1.19.1c-.38,0-.76,0-1.14.06h-.08a.07.07,0,0,1-.06-.07,1.09,1.09,0,0,1,0-.18Z" transform="translate(-0.43 -1.29)" fill="#00c951"/>
  <path d="M58.38,31.22H54.89c-.12,0-.13,0-.15-.14V31c0-.35,0-.69-.06-1s-.08-.82-.14-1.23q-.13-.91-.33-1.83A22.08,22.08,0,0,0,53.37,24,22.92,22.92,0,0,0,52,20.93,23.5,23.5,0,0,0,38.35,9.61a23.89,23.89,0,0,0-2.89-.71c-.5-.09-1-.16-1.52-.22s-.79-.09-1.19-.1c-.2,0-.39,0-.59,0a.09.09,0,0,1-.09-.09v-7c0-.13,0-.14.14-.14l1.15.06.67,0c.36,0,.73.07,1.09.12s.79.1,1.18.17c.66.1,1.32.23,2,.38A29.8,29.8,0,0,1,43,3.61a30.44,30.44,0,0,1,4.3,2.18A31.07,31.07,0,0,1,50.8,8.26c.53.43,1,.88,1.54,1.35s1,1,1.47,1.48A32.9,32.9,0,0,1,56.19,14a31,31,0,0,1,2.93,5A30,30,0,0,1,61,24.06c.2.73.37,1.47.51,2.21.1.55.19,1.11.26,1.66s.13,1.06.17,1.59.07,1,.08,1.54v.1s0,.05,0,.05H58.38Z" transform="translate(-0.43 -1.29)" fill="#ffc32e"/>
  <path d="M30.35,59.08V55.73a.86.86,0,0,0,0-.16c0-.1,0-.11-.1-.12l-.42,0c-.45,0-.9-.07-1.35-.12s-.82-.1-1.23-.16c-.74-.13-1.48-.29-2.21-.48a23.87,23.87,0,0,1-5-2A23.47,23.47,0,0,1,16.07,50a23,23,0,0,1-2.2-2.1,23.53,23.53,0,0,1-3.36-4.68,23.43,23.43,0,0,1-2.48-7c-.09-.51-.17-1-.22-1.54S7.7,33.53,7.68,33c0-.2,0-.2-.21-.2H.6c-.18,0-.18,0-.17.18,0,.51,0,1,.08,1.52,0,.35.05.7.09,1s.11.85.17,1.27c.1.61.21,1.22.35,1.83.19.84.4,1.68.66,2.5a31.21,31.21,0,0,0,2.14,5.18,31.58,31.58,0,0,0,3,4.59,30.54,30.54,0,0,0,3.36,3.65,30.21,30.21,0,0,0,4.59,3.52A31.06,31.06,0,0,0,19,60.23a30.33,30.33,0,0,0,5,1.66c.72.17,1.45.31,2.18.43.56.09,1.12.17,1.69.23l1.19.1c.38,0,.75,0,1.13.06h.08s.07,0,.07-.07V59.08Z" transform="translate(-0.43 -1.29)" fill="#fb2c36"/>
  <path d="M4.05,31.22H7.53c.13,0,.14,0,.15-.14a.34.34,0,0,0,0-.1c0-.35,0-.69.06-1s.08-.82.14-1.23c.08-.61.2-1.22.33-1.83A22,22,0,0,1,9.05,24a24.31,24.31,0,0,1,1.38-3.08,23.57,23.57,0,0,1,2.29-3.49,22.25,22.25,0,0,1,2-2.22,23,23,0,0,1,4.95-3.71A23.33,23.33,0,0,1,27,8.9c.5-.09,1-.16,1.52-.22s.79-.09,1.19-.1l.58,0c.07,0,.09,0,.09-.09a.86.86,0,0,0,0-.16V1.53a.34.34,0,0,0,0-.1c0-.13,0-.14-.14-.14l-1.15.06-.66,0c-.37,0-.73.07-1.09.12s-.79.1-1.18.17c-.66.1-1.32.23-2,.38a29.91,29.91,0,0,0-4.78,1.54,30.28,30.28,0,0,0-7.75,4.65c-.53.43-1,.88-1.54,1.35s-1,1-1.47,1.48A31.21,31.21,0,0,0,6.24,14a30.29,30.29,0,0,0-2.93,5,31,31,0,0,0-1.87,5.11c-.19.73-.36,1.47-.5,2.21-.11.55-.2,1.11-.27,1.66S.55,29,.51,29.52s-.08,1-.08,1.54v.1a0,0,0,0,0,0,.05H4.05Z" transform="translate(-0.43 -1.29)" fill="#2b7fff"/>
  <path d="M31.29,46.7c-.84,0-1.68,0-2.52-.05s-1.47-.07-2.2-.14-1.36-.12-2-.22a23.79,23.79,0,0,1-3.63-.72,2.8,2.8,0,0,1-2-2.24,2.69,2.69,0,0,1,0-1.23c.32-1.35.64-2.71,1-4.07a3.38,3.38,0,0,1,1.78-2.3l5.41-2.8.07,0a.09.09,0,0,1,.11,0l.1.06a7.49,7.49,0,0,0,8,0l.08-.06a.12.12,0,0,1,.1,0l.14.08,5.27,2.73a3.51,3.51,0,0,1,1.88,2.41c.32,1.34.63,2.69,1,4a2.87,2.87,0,0,1-2,3.44q-1,.29-2.13.48l-1.74.27c-.58.07-1.17.13-1.75.18-.75.07-1.49.11-2.23.14S32.14,46.71,31.29,46.7Z" transform="translate(-0.43 -1.29)" fill="#fff"/>
  <path d="M25,25.12V23.6a6.06,6.06,0,0,1,.23-1.7,6.29,6.29,0,0,1,4.62-4.44,6.1,6.1,0,0,1,1.95-.14,6.27,6.27,0,0,1,5.4,4.14,6.15,6.15,0,0,1,.36,2.08v3.17a6.28,6.28,0,0,1-12.3,1.75A6.2,6.2,0,0,1,25,26.7C25,26.17,25,25.65,25,25.12Z" transform="translate(-0.43 -1.29)" fill="#fff"/>
  <g>
    <path d="M78.78,18.71a7.76,7.76,0,0,1,.42-1.48,6.71,6.71,0,0,1,1.34-2.32,5.79,5.79,0,0,1,2.06-1.42,7.43,7.43,0,0,1,1.28-.36,7.3,7.3,0,0,1,4.5.54,5.58,5.58,0,0,1,2.14,1.82,5.64,5.64,0,0,1,.94,2.62h-3a2.88,2.88,0,0,0-3-2.5A3.24,3.24,0,0,0,82.62,17a6.36,6.36,0,0,0-1,3.76l0,.12a6.42,6.42,0,0,0,.4,2.24,4,4,0,0,0,1.18,1.76,2.84,2.84,0,0,0,1.9.66,3.07,3.07,0,0,0,3.28-2.7h3a7.11,7.11,0,0,1-1,2.72,5.52,5.52,0,0,1-2.1,1.88,6.32,6.32,0,0,1-3,.72,7,7,0,0,1-3.38-.8,5.86,5.86,0,0,1-2.4-2.5,7.46,7.46,0,0,1-.66-1.9,10.12,10.12,0,0,1-.24-2.24l0-.42A7.77,7.77,0,0,1,78.78,18.71Z" transform="translate(-0.43 -1.29)" fill="#fff"/>
    <path d="M97.06,13.37h3.48l5.08,14.38h-3.28l-.9-3h-5.3l-1,3H92Zm3.52,9-1.8-5.72-1.86,5.72Z" transform="translate(-0.43 -1.29)" fill="#fff"/>
    <path d="M106.74,13.37h3.18l5.7,10,0-10h2.8V27.75h-3L109.6,17.51l0,10.24h-2.82Z" transform="translate(-0.43 -1.29)" fill="#fff"/>
    <path d="M119.82,27.75V13.37h6.4a5.62,5.62,0,0,1,3.34.92,5.33,5.33,0,0,1,1.88,2.46A9.08,9.08,0,0,1,132,20a12.2,12.2,0,0,1-.56,3.76,6.15,6.15,0,0,1-1.88,2.88,5,5,0,0,1-3.42,1.14Zm5.9-2.46a2.61,2.61,0,0,0,2.46-1.46,7.35,7.35,0,0,0,.78-3.54,8.1,8.1,0,0,0-.08-1.2,9.26,9.26,0,0,0-.22-1.06,3,3,0,0,0-1-1.56,2.91,2.91,0,0,0-2-.6h-3v9.42Z" transform="translate(-0.43 -1.29)" fill="#fff"/>
    <path d="M133.4,13.37h3V27.75h-3Z" transform="translate(-0.43 -1.29)" fill="#fff"/>
    <path d="M137.78,27.75V13.37h6.4a5.62,5.62,0,0,1,3.34.92,5.33,5.33,0,0,1,1.88,2.46A9.08,9.08,0,0,1,150,20a12.2,12.2,0,0,1-.56,3.76,6.15,6.15,0,0,1-1.88,2.88,5,5,0,0,1-3.42,1.14Zm5.9-2.46a2.61,2.61,0,0,0,2.46-1.46,7.35,7.35,0,0,0,.78-3.54,8.1,8.1,0,0,0-.08-1.2,9.26,9.26,0,0,0-.22-1.06,3,3,0,0,0-1-1.56,2.91,2.91,0,0,0-2-.6h-3v9.42Z" transform="translate(-0.43 -1.29)" fill="#fff"/>
    <path d="M155.58,13.37h3.48l5.08,14.38h-3.28l-.9-3h-5.3l-1,3h-3.16Zm3.52,9-1.8-5.72-1.86,5.72Z" transform="translate(-0.43 -1.29)" fill="#fff"/>
    <path d="M166.24,15.91h-4.32V13.37H173.6v2.54h-4.34V27.75h-3Z" transform="translate(-0.43 -1.29)" fill="#fff"/>
    <path d="M174.74,13.37h10.58v2.54h-7.64V19h7v2.52h-7v3.72h8v2.54h-10.9Z" transform="translate(-0.43 -1.29)" fill="#fff"/>
    <path d="M82.34,35.91H78V33.37H89.7v2.54H85.36V47.75h-3Z" transform="translate(-0.43 -1.29)" fill="#fff"/>
    <path d="M90.84,33.37h7.3a5.05,5.05,0,0,1,2.48.56,4,4,0,0,1,1.52,1.52,4,4,0,0,1,.5,1.94,4.4,4.4,0,0,1-.28,1.52,3.24,3.24,0,0,1-.76,1.22,3.15,3.15,0,0,1-1.18.74A2.12,2.12,0,0,1,101.88,42a5.38,5.38,0,0,1,.34,2v.6l0,.66a5,5,0,0,0,.18,1.44.71.71,0,0,0,.52.58v.4H99.56a5,5,0,0,1-.24-1.06l-.08-1.26,0-1.28a3.86,3.86,0,0,0,0-.6c0-.08,0-.23-.1-.44L99,43a1.16,1.16,0,0,0-.56-.62A3.45,3.45,0,0,0,97,42.13h-3.2v5.62H90.84Zm6.68,6.34a2.19,2.19,0,0,0,1.66-.52,2.3,2.3,0,0,0,.46-1.48,2,2,0,0,0-.46-1.3,2,2,0,0,0-1.58-.54H93.78v3.84Z" transform="translate(-0.43 -1.29)" fill="#fff"/>
    <path d="M108.64,33.37h3.48l5.08,14.38h-3.28l-.9-3h-5.3l-1,3h-3.16Zm3.52,9-1.8-5.72-1.86,5.72Z" transform="translate(-0.43 -1.29)" fill="#fff"/>
    <path d="M118,38.71a7.76,7.76,0,0,1,.42-1.48,6.71,6.71,0,0,1,1.34-2.32,5.79,5.79,0,0,1,2.06-1.42,7.43,7.43,0,0,1,1.28-.36,7.3,7.3,0,0,1,4.5.54,5.58,5.58,0,0,1,2.14,1.82,5.64,5.64,0,0,1,.94,2.62h-3a2.88,2.88,0,0,0-3-2.5A3.24,3.24,0,0,0,121.84,37a6.36,6.36,0,0,0-1,3.76l0,.12a6.42,6.42,0,0,0,.4,2.24,4,4,0,0,0,1.18,1.76,2.84,2.84,0,0,0,1.9.66,3.07,3.07,0,0,0,3.28-2.7h3a7.11,7.11,0,0,1-1,2.72,5.52,5.52,0,0,1-2.1,1.88,6.32,6.32,0,0,1-3,.72,7,7,0,0,1-3.38-.8,5.86,5.86,0,0,1-2.4-2.5,7.46,7.46,0,0,1-.66-1.9,10.12,10.12,0,0,1-.24-2.24l0-.42A7.77,7.77,0,0,1,118,38.71Z" transform="translate(-0.43 -1.29)" fill="#fff"/>
    <path d="M132.54,33.37h3v5.86L141,33.37h3.86L139,39.27l6.22,8.48h-3.88l-4.44-6.28-1.42,1.4v4.88h-3Z" transform="translate(-0.43 -1.29)" fill="#fff"/>
    <path d="M146.12,33.37H156.7v2.54h-7.64V39h7v2.52h-7v3.72h8v2.54h-10.9Z" transform="translate(-0.43 -1.29)" fill="#fff"/>
    <path d="M158.84,33.37h7.3a5.05,5.05,0,0,1,2.48.56,4,4,0,0,1,1.52,1.52,4,4,0,0,1,.5,1.94,4.18,4.18,0,0,1-.28,1.52,3.24,3.24,0,0,1-.76,1.22,3.15,3.15,0,0,1-1.18.74A2.12,2.12,0,0,1,169.88,42a5.38,5.38,0,0,1,.34,2v.6l0,.66a5,5,0,0,0,.18,1.44.71.71,0,0,0,.52.58v.4h-3.32a5,5,0,0,1-.24-1.06l-.08-1.26,0-1.28a3.86,3.86,0,0,0,0-.6c0-.08,0-.23-.1-.44l0-.12a1.16,1.16,0,0,0-.56-.62,3.45,3.45,0,0,0-1.48-.24h-3.2v5.62h-2.94Zm6.68,6.34a2.17,2.17,0,0,0,1.66-.52,2.3,2.3,0,0,0,.46-1.48,2,2,0,0,0-.46-1.3,2,2,0,0,0-1.58-.54h-3.82v3.84Z" transform="translate(-0.43 -1.29)" fill="#fff"/>
  </g>
</svg>
