<svg xmlns="http://www.w3.org/2000/svg" viewBox="0 0 466 464.8">
  <title>candidate-tracker-logo-white</title>
  <path d="M256.5,454.91V429.6c0-.41,0-.82,0-1.23,0-.72.1-.82.77-.87,1.07-.08,2.14-.16,3.21-.21,3.42-.15,6.83-.47,10.23-.85,3.1-.34,6.18-.77,9.26-1.27a171.22,171.22,0,0,0,16.76-3.62,177,177,0,0,0,67.87-35.33,179.46,179.46,0,0,0,16.64-15.87,175.46,175.46,0,0,0,25.43-35.41,178.61,178.61,0,0,0,13.43-31.55,174,174,0,0,0,5.35-21.7c.7-3.87,1.27-7.76,1.68-11.67.45-4.22.83-8.44.94-12.69,0-1.51.08-1.52,1.59-1.52h52c1.35,0,1.36,0,1.34,1.38q-.09,5.76-.62,11.48c-.25,2.65-.42,5.3-.73,7.94-.37,3.19-.78,6.39-1.28,9.56-.74,4.64-1.6,9.26-2.61,13.85q-2.11,9.58-5,18.95a232.22,232.22,0,0,1-38.66,73.92,235.72,235.72,0,0,1-25.4,27.64,229.25,229.25,0,0,1-34.77,26.64,233,233,0,0,1-69.4,29c-5.47,1.3-11,2.38-16.52,3.28-4.24.69-8.5,1.24-12.76,1.71-3,.33-6,.44-9,.74s-5.72.19-8.57.45a4.28,4.28,0,0,1-.62,0,.5.5,0,0,1-.5-.48c0-.46,0-.92,0-1.38Z" transform="translate(-17 -17.6)" fill="#00c951"/>
  <path d="M455.59,244.11H429.2c-.91,0-1-.11-1.11-1.06,0-.25,0-.51,0-.76,0-2.62-.23-5.22-.45-7.81-.26-3.1-.63-6.2-1.07-9.28-.65-4.66-1.49-9.28-2.49-13.87a172.51,172.51,0,0,0-6.32-21.76A177.84,177.84,0,0,0,304,80.55a171.21,171.21,0,0,0-21.86-5.35c-3.83-.68-7.66-1.27-11.52-1.69-3-.33-6-.65-9-.75-1.48,0-3-.16-4.44-.25-.49,0-.65-.18-.67-.65s0-.81,0-1.22V19.39c0-.25,0-.51,0-.77,0-1,.06-1.06,1.06-1,2.91.13,5.82.29,8.72.46,1.69.1,3.37.26,5.05.38,2.75.2,5.49.52,8.23.86q4.49.56,8.94,1.28c5,.8,9.95,1.79,14.88,2.92a229.2,229.2,0,0,1,36.15,11.6,232,232,0,0,1,58.7,35.21c4,3.28,7.85,6.71,11.63,10.24s7.54,7.35,11.14,11.2a233,233,0,0,1,18,21.89,232.72,232.72,0,0,1,36.3,76.28q2.21,8.3,3.82,16.72,1.19,6.24,2,12.56c.5,4,.93,8,1.26,12s.55,7.75.61,11.64c0,.25,0,.51,0,.76a.41.41,0,0,1-.38.41q-.69.06-1.38.06Z" transform="translate(-17 -17.6)" fill="#ffc32e"/>
  <path d="M243.5,454.91V429.6c0-.41,0-.82,0-1.23,0-.72-.1-.82-.77-.87-1.07-.08-2.14-.16-3.21-.21-3.42-.15-6.83-.47-10.23-.85-3.1-.34-6.18-.77-9.26-1.27a171.22,171.22,0,0,1-16.76-3.62,177,177,0,0,1-67.87-35.33,179.46,179.46,0,0,1-16.64-15.87,175.46,175.46,0,0,1-25.43-35.41A178.61,178.61,0,0,1,79.9,303.39a174,174,0,0,1-5.35-21.7c-.7-3.87-1.27-7.76-1.68-11.67-.45-4.22-.83-8.44-.94-12.69,0-1.51-.08-1.52-1.59-1.52h-52c-1.35,0-1.36,0-1.34,1.38q.09,5.76.62,11.48c.25,2.65.42,5.3.73,7.94.37,3.19.78,6.39,1.28,9.56.74,4.64,1.6,9.26,2.61,13.85q2.11,9.58,5,18.95a232.22,232.22,0,0,0,38.66,73.92,235.72,235.72,0,0,0,25.4,27.64,229.25,229.25,0,0,0,34.77,26.64,233,233,0,0,0,69.4,29c5.47,1.3,11,2.38,16.52,3.28,4.24.69,8.5,1.24,12.76,1.71,3,.33,6,.44,9,.74,2.85.29,5.72.19,8.57.45a4.28,4.28,0,0,0,.62,0,.5.5,0,0,0,.5-.48c0-.46,0-.92,0-1.38Z" transform="translate(-17 -17.6)" fill="#fb2c36"/>
  <path d="M44.41,244.11H70.8c.91,0,1-.11,1.11-1.06,0-.25,0-.51,0-.76,0-2.62.23-5.22.45-7.81.26-3.1.63-6.2,1.07-9.28.65-4.66,1.49-9.28,2.49-13.87a172.51,172.51,0,0,1,6.32-21.76A177.84,177.84,0,0,1,196,80.55a171.21,171.21,0,0,1,21.86-5.35c3.83-.68,7.66-1.27,11.52-1.69,3-.33,6-.65,9-.75,1.48,0,3-.16,4.44-.25.49,0,.65-.18.67-.65s0-.81,0-1.22V19.39c0-.25,0-.51,0-.77,0-1-.06-1.06-1.06-1-2.91.13-5.82.29-8.72.46-1.69.1-3.37.26-5.05.38-2.75.2-5.49.52-8.23.86q-4.49.56-8.94,1.28c-5,.8-9.95,1.79-14.88,2.92a229.2,229.2,0,0,0-36.15,11.6,232,232,0,0,0-58.7,35.21c-4,3.28-7.85,6.71-11.63,10.24S82.6,87.91,79,91.76a233,233,0,0,0-18,21.89,232.72,232.72,0,0,0-36.3,76.28q-2.2,8.3-3.82,16.72-1.18,6.24-2,12.56c-.5,4-.93,8-1.26,12S17.06,239,17,242.88c0,.25,0,.51,0,.76a.41.41,0,0,0,.38.41q.69.06,1.38.06Z" transform="translate(-17 -17.6)" fill="#2b7fff"/>
  <path d="M250.56,361.26c-6.35.1-12.69-.11-19-.37q-8.35-.33-16.69-1.05c-5.14-.44-10.28-1-15.39-1.66A184.88,184.88,0,0,1,172,352.69c-8.51-2.5-13.61-8.32-15.5-16.94a20.65,20.65,0,0,1,.29-9.28c2.45-10.28,4.85-20.57,7.35-30.85a25.56,25.56,0,0,1,13.48-17.36c13.62-7.13,27.29-14.17,40.93-21.25l.55-.28a.77.77,0,0,1,.86,0c.25.18.51.34.77.5a55.15,55.15,0,0,0,20.62,7.88,56.92,56.92,0,0,0,15,.47,55.5,55.5,0,0,0,24.54-8.47c.21-.13.43-.27.64-.42a.71.71,0,0,1,.73,0c.36.17.72.37,1.08.56q19.93,10.33,39.86,20.67a26.41,26.41,0,0,1,14.23,18.22q3.6,15.27,7.22,30.56a21.71,21.71,0,0,1-15.31,26c-5.33,1.45-10.71,2.65-16.13,3.65q-6.57,1.2-13.18,2c-4.41.56-8.84,1-13.27,1.39q-8.4.74-16.84,1.07C263.44,361.15,257,361.36,250.56,361.26Z" transform="translate(-17 -17.6)" fill="#fff"/>
  <path d="M203.11,197.92c0-3.84,0-7.68,0-11.51a49.18,49.18,0,0,1,1.73-12.88,47.58,47.58,0,0,1,90.62-3.32A47,47,0,0,1,298.21,186q0,12,0,23.94a47.55,47.55,0,0,1-95.09-.05C203.09,205.89,203.11,201.91,203.11,197.92Z" transform="translate(-17 -17.6)" fill="#fff"/>
</svg>
